<svg transform="scale(1)" version="1.1" id="Layer_1" xmlns="http://www.w3.org/2000/svg" xmlns:xlink="http://www.w3.org/1999/xlink" x="0px" y="0px" viewBox="0 0 500 500" xml:space="preserve" class="show_show__wrapper__graphic__5Waiy "><title>React</title><style type="text/css">
	.st0{fill:#000001;}
	.st1{fill:#469F78;}
	.st2{fill:#87CCDB;}
	.st3{fill:#EA8383;}
	.st4{fill:#A04040;}
	.st5{fill:#FFFFFF;}
	.st6{fill:#F2EBEB;}
	.st7{clip-path:url(#SVGID_2_);}
	.st8{fill:#F3CB5C;}
</style><g id="character-1"><path class="st0" d="M292.5,448.1l-0.8-4.1l-22.6,1.8c0,0,3.3,15.4,6.3,23.1c-3.7,2.4-8,3.4-12.4,2.9c-7.4-1-14.6,4.1-13.1,5.1
		s52.3,2.3,52.3,2.3L292.5,448.1z"></path><path class="st0" d="M310.2,444l-1.4-3.8l24.4,2.8l4.9,24.7c1.6,1.1,10,3.8,16,3c7.4-1,14.6,4.1,13.1,5.1s-52.3,2.3-52.3,2.3
		L310.2,444z"></path><path class="st1" d="M307.9,447.5h35.5c0,0-2.2-7.9-8.4-12s1.9-11.7-3.5-19.1s-10.6-14.7-9-20.5s0-17.3-6.8-22.6
		s-27.1-126.6-32.4-127s-17.8,51.8-17.8,59.2S307.9,447.5,307.9,447.5z"></path><path class="st1" d="M300.1,447.5c0,0-32.9,1.4-34.2,0S230.4,315.1,230.8,301s1.1-48.2,1.1-48.2l51.3-6.5c0,0-12.6,64.7-12.6,71
		s7.8,57.9,7.8,57.9s9.5,12.6,6.9,21.7s12.1,13,9.1,22.1s-6.5,11,0,16.2C298.3,438.1,300.4,442.7,300.1,447.5z"></path><path class="st0" d="M116,218.1c0,0-3.6-10-5.2-10.6s-2.6,14.7-2.6,14.7L116,218.1z"></path><path class="st2" d="M225.7,146.4c0,0-10.4,0.9-14.1,6.4s-39.8,123-31.3,130.6c13.7,12.3,102.9-37.1,102.9-37.1
		c-10.5-101.1-12.7-89.6-25-97S225.7,146.4,225.7,146.4z"></path><path class="st3" d="M219.7,115.7c0,0,15.8,29.4,16,30.1s-17.4,15.5-17.4,15.5l-9.9-28c0,0-15.9,12-18.8-9.9c0,0-9.6,2.6-9.2,1.6
		s7.3-17,11.6-24s33.1-5,34.1-1.3S227.9,114.5,219.7,115.7z"></path><path class="st4" d="M216.1,113.9c0,0,1.1-13.1,4-13s6.8,7.9-0.4,14.8l3.4,6.3c6.3-5.3,9.5-13.3,8.7-21.5
		c-1.3-14-12.9-19.4-36-13.3c0,0,11.1-14.9-1.8-17.9s-20.6,22.6-16.8,27.6s10.4,7,17.4,6.6s10.2-1.4,10.8,0.4s0.1,10.8-2.6,13.6
		s-13.1,6-13.1,6s-7.6,13.6-8.2,21.8s3.8,4.1,3.8,4.1s-1.8,3.4,4.8,2.6S215.6,133,216.1,113.9z"></path><path class="st5" d="M203.5,106.5c0,0-10.4-1-11.2,8C192.3,114.5,203.1,115.4,203.5,106.5z"></path><path class="st0" d="M204,106.3c-2.5,0.5-4.9,1.4-7.2,2.5c-1,0.6-1.9,1.3-2.7,2.3c-0.8,1-1.4,2.2-1.8,3.4c-0.4-1.4-0.2-2.9,0.4-4.2
		c0.7-1.3,1.7-2.5,3-3.2c1.3-0.7,2.6-1.1,4.1-1.3C201.3,105.7,202.7,105.9,204,106.3z"></path><path class="st0" d="M195.1,108.8c0,0,2.7,0,2.8,5c0,0-4.1,1.8-5.6,0.7C192.3,114.5,193.1,109.3,195.1,108.8z"></path><path class="st0" d="M203.6,121.8c-0.4,0.6-0.6,1.1-0.9,1.6s-0.5,0.9-0.6,1.3s-0.4,0.9-0.6,1.3c-0.2,0.6-0.5,1.1-0.8,1.6
		c-0.4-0.5-0.7-1.2-0.8-1.8c-0.1-0.7,0.1-1.4,0.3-2c0.3-0.6,0.8-1.2,1.3-1.6C202.2,121.8,202.9,121.7,203.6,121.8z"></path><path class="st4" d="M176.5,74.4c-0.3,1.4-0.6,2.8-0.8,4.1s-0.4,2.8-0.6,4.2c-0.3,2.7-0.3,5.5,0.1,8.3c0.3,2.7,1.6,5.2,3.6,7
		c2.1,1.7,5,2.2,7.8,2.2c-1.4,0.2-2.8,0.2-4.2,0c-1.4-0.2-2.8-0.8-4-1.6c-1.2-0.9-2.2-2-2.8-3.3c-0.6-1.3-1.1-2.7-1.3-4.1
		c-0.4-2.8-0.4-5.7,0.1-8.5C174.8,79.7,175.5,77,176.5,74.4z"></path><polygon class="st0" points="215.2,120.9 211.4,141.8 208.8,135 	"></polygon><path class="st0" d="M193.3,103.5c0.6-0.1,1.2-0.3,1.7-0.6c0.5-0.2,0.9-0.5,1.4-0.8s0.9-0.6,1.4-0.9c0.6-0.4,1.2-0.7,1.8-0.9
		c-0.1,0.7-0.3,1.4-0.7,2c-0.4,0.6-0.9,1.1-1.5,1.5c-0.6,0.4-1.4,0.7-2.1,0.7C194.6,104.4,193.8,104.1,193.3,103.5z"></path><path class="st6" d="M210.2,155.1c-12.5-27-34.2-13.8-34.2-13.8s-96.3,44.4-74.5,61.9s29.7,55.1,29.7,55.1
		c-2.6,0.3-5.2,0.5-7.8,0.6l28,34.8c2.5-0.1,5,0,7.5,0.2c19.1,1.3,70.4,27,92.1,14.5S222.8,182.1,210.2,155.1z"></path><path class="st6" d="M36,259.2c-26.2,13.1,0.7,160.5,21.7,168.2c43.1,15.9,123.7,10,123.7,10c-90-91.5-47.4-138.9-47.4-138.9
		s4.3-4.3,17.5-4.8l-28-34.8C93.2,260.2,60.1,247.1,36,259.2z"></path><g><defs><path id="SVGID_1_" d="M210.2,155.1c-12.5-27-34.2-13.8-34.2-13.8s-96.3,44.4-74.5,61.9s29.7,55.1,29.7,55.1
				c-2.6,0.3-5.2,0.5-7.8,0.6l50.1-7.4c2.2-0.1-17.4,42.2-14.7,42.4c19.1,1.3,70.4,27,92.1,14.5S222.8,182.1,210.2,155.1z"></path></defs><clipPath id="SVGID_2_"><use xlink:href="#SVGID_1_" style="overflow: visible;"></use></clipPath><g class="st7"><polygon class="st5" points="65.1,132.3 64.1,163.9 62.9,195.4 60.5,258.5 57.8,321.6 56.4,353.1 54.9,384.6 55.9,353.1 
				57.1,321.5 59.5,258.4 62.2,195.4 63.6,163.8 			"></polygon><polygon class="st5" points="85.6,132.8 85.4,164.3 85.1,195.8 84.5,258.7 83.5,321.7 83,353.2 82.4,384.6 82.5,353.2 
				82.8,321.7 83.5,258.7 84.4,195.7 84.9,164.3 			"></polygon><polygon class="st5" points="107.9,132.8 108.2,164.3 108.3,195.8 108.4,258.7 108.3,321.7 108.2,353.2 107.9,384.6 107.7,353.2 
				107.6,321.7 107.4,258.7 107.6,195.8 107.7,164.3 			"></polygon><polygon class="st5" points="129.8,132.7 130.4,164.2 130.8,195.7 131.5,258.7 131.9,321.6 132.2,353.1 132.2,384.6 131.7,353.1 
				131.3,321.7 130.5,258.7 130.1,195.7 129.9,164.2 			"></polygon><polygon class="st5" points="148.2,132.8 149.7,164.3 151.1,195.7 153.8,258.7 156.2,321.7 157.4,353.1 158.4,384.6 156.9,353.2 
				155.5,321.7 152.8,258.7 150.4,195.8 149.2,164.3 			"></polygon><polygon class="st5" points="168,132.8 169.8,164.3 171.5,195.8 174.8,258.7 177.8,321.7 179.3,353.2 180.6,384.7 178.8,353.2 
				177.1,321.7 173.8,258.8 170.8,195.8 169.3,164.3 			"></polygon><polygon class="st5" points="194.7,384.7 192.7,353.2 190.9,321.7 187.2,258.8 183.8,195.8 182.2,164.3 180.6,132.8 182.6,164.3 
				184.5,195.8 188.2,258.7 191.5,321.7 193.2,353.2 			"></polygon><polygon class="st5" points="196.6,132.8 198.1,164.3 199.5,195.8 202.2,258.7 204.6,321.7 205.8,353.2 206.9,384.7 205.3,353.2 
				204,321.7 201.2,258.8 198.9,195.8 197.7,164.3 			"></polygon><polygon class="st5" points="-24.1,210.6 17.1,210.4 58.3,210.3 140.7,210.1 223.1,210.3 264.4,210.3 305.6,210.6 264.4,210.8 
				223.1,210.9 140.7,211.1 58.3,210.9 17.1,210.8 			"></polygon><polygon class="st5" points="-23.6,195 17.1,195.1 57.7,195.4 139.1,196 220.4,197 261.1,197.5 301.7,198.1 261.1,198 
				220.4,197.7 139.1,197 57.7,196.1 17.1,195.6 			"></polygon><polygon class="st5" points="-23.6,177.8 7.9,177.6 39.3,177.5 102.3,177.3 165.3,177.5 196.8,177.6 228.2,177.8 196.8,178.1 
				165.3,178.2 102.3,178.3 39.3,178.2 7.9,178.1 			"></polygon><polygon class="st5" points="-23.7,161.1 7.8,160.6 39.3,160.3 102.3,159.7 165.2,159.4 196.8,159.2 228.2,159.3 196.8,159.7 
				165.2,160.1 102.3,160.7 39.3,161 7.8,161.1 			"></polygon><polygon class="st5" points="-23.6,147 7.9,145.8 39.3,144.7 102.3,142.6 165.3,140.8 196.8,139.9 228.2,139.2 196.8,140.4 
				165.3,141.5 102.3,143.6 39.4,145.4 7.9,146.3 			"></polygon><polygon class="st5" points="-23.6,131.9 7.9,130.5 39.4,129.2 102.3,126.6 165.3,124.3 196.8,123.2 228.3,122.2 196.8,123.7 
				165.4,125 102.4,127.6 39.4,129.8 7.9,130.9 			"></polygon><polygon class="st5" points="228.3,111.5 196.8,113 165.4,114.5 102.4,117.3 39.4,119.9 7.9,121.1 -23.6,122.2 7.9,120.6 
				39.4,119.2 102.3,116.3 165.3,113.8 196.8,112.6 			"></polygon><polygon class="st5" points="-23.6,110 7.9,108.8 39.4,107.7 102.4,105.6 165.3,103.8 196.8,102.9 228.3,102.2 196.8,103.4 
				165.3,104.4 102.4,106.6 39.4,108.4 7.9,109.2 			"></polygon><polygon class="st5" points="-48.2,329 3.6,329.7 55.5,330.6 159.2,332.4 262.9,334.5 314.7,335.6 366.5,336.8 314.7,336.1 
				262.8,335.2 159.1,333.4 55.5,331.3 3.6,330.2 			"></polygon><polygon class="st5" points="-47.4,313.4 4.3,313.4 56.1,313.6 159.6,314.1 263,314.9 314.8,315.2 366.5,315.8 314.8,315.7 
				263,315.5 159.6,315.1 56.1,314.3 4.3,313.9 			"></polygon><polygon class="st5" points="-47.4,296.2 4.3,296 56.1,295.9 159.6,295.7 263,295.9 314.8,296 366.5,296.2 314.8,296.5 
				263,296.6 159.6,296.7 56.1,296.6 4.3,296.5 			"></polygon><polygon class="st5" points="-47.6,279.5 4.2,279 55.9,278.7 159.5,278.1 263,277.8 314.8,277.6 366.5,277.7 314.8,278.1 
				263,278.4 159.5,279.1 55.9,279.4 4.2,279.5 			"></polygon><polygon class="st5" points="-47.4,265.4 4.3,264.2 56.1,263.1 159.6,261 263,259.2 314.8,258.3 366.5,257.6 314.8,258.8 
				263.1,259.9 159.6,262 56.1,263.8 4.3,264.7 			"></polygon><polygon class="st5" points="-47.3,250.3 4.4,248.8 56.2,247.5 159.6,245 263.1,242.7 314.9,241.6 366.6,240.6 314.9,242.1 
				263.1,243.4 159.7,246 56.2,248.2 4.4,249.3 			"></polygon><polygon class="st5" points="366.6,229.8 314.9,231.4 263.1,232.9 159.7,235.7 56.2,238.2 4.4,239.5 -47.3,240.6 4.4,239 
				56.2,237.6 159.6,234.7 263.1,232.2 314.9,230.9 			"></polygon><polygon class="st5" points="-47.3,228.4 4.4,227.2 56.2,226.1 159.6,224 263.1,222.2 314.9,221.3 366.6,220.6 314.9,221.8 
				263.1,222.8 159.7,225 56.2,226.7 4.4,227.6 			"></polygon><polygon class="st5" points="222.5,142.1 221.4,173.7 220.2,205.2 217.8,268.3 215.1,331.4 213.7,362.9 212.2,394.4 213.2,362.9 
				214.4,331.3 216.8,268.3 219.6,205.2 220.9,173.6 			"></polygon><polygon class="st5" points="242.9,142.6 242.8,174.1 242.4,205.6 241.8,268.5 240.9,331.5 240.4,363 239.7,394.4 239.9,363 
				240.2,331.5 240.8,268.5 241.8,205.6 242.3,174.1 			"></polygon><polygon class="st5" points="265.3,142.6 265.5,174.1 265.6,205.6 265.8,268.5 265.6,331.5 265.5,363 265.3,394.4 265,363 
				265,331.5 264.8,268.5 265,205.6 265,174.1 			"></polygon><polygon class="st5" points="287.2,142.5 287.7,174 288.1,205.5 288.9,268.5 289.3,331.5 289.5,362.9 289.6,394.4 289,363 
				288.6,331.5 287.9,268.5 287.4,205.5 287.2,174 			"></polygon><polygon class="st5" points="305.6,142.6 307.1,174.1 308.4,205.5 311.2,268.5 313.5,331.5 314.7,363 315.8,394.4 314.2,363 
				312.9,331.5 310.2,268.5 307.8,205.6 306.6,174.1 			"></polygon><polygon class="st5" points="325.3,142.7 327.1,174.1 328.8,205.6 332.2,268.6 335.2,331.5 336.7,363 338,394.5 336.2,363 
				334.5,331.6 331.2,268.6 328.2,205.6 326.7,174.1 			"></polygon><polygon class="st5" points="352.1,394.5 350.1,363 348.2,331.6 344.5,268.6 341.2,205.6 339.5,174.1 338,142.7 340,174.1 
				341.9,205.6 345.5,268.5 348.9,331.5 350.5,363 			"></polygon><polygon class="st5" points="354,142.7 355.5,174.1 356.9,205.6 359.6,268.6 362,331.5 363.2,363 364.2,394.5 362.7,363 
				361.3,331.6 358.6,268.6 356.2,205.6 355,174.1 			"></polygon></g></g><path class="st8" d="M176.4,177.2c0,0-18.2,5.6-41.4,11.9s-46.4,21.3-51.4,21.3s-13.9-25.7-3.5-33.2s70.8-33.6,101.1-38.1
		C181.3,139.1,168.3,156.6,176.4,177.2z"></path><path class="st8" d="M238,311.7c0,0-30.2-2.9-39-27.3s-19.4-40.1-33.2-28.8s-28.1,34.9-31.8,42.9c0,0,23.8-3.8,44.4,4.5
		S225.8,319.9,238,311.7z"></path><path class="st0" d="M84.4,255.8c8.6,0.8,17.2,1.5,25.8,1.9c8.6,0.4,17.2,0.3,25.8-0.2c8.6-0.6,17-2,25.3-4.2
		c4.2-1,8.4-2.2,12.8-2.3c2.2-0.1,4.4,0.5,6.4,1.6c1.8,1.2,3.4,2.8,4.4,4.8c-0.6-0.9-1.3-1.7-2.1-2.4c-0.7-0.7-1.6-1.4-2.6-1.9
		c-1.9-0.9-4-1.3-6.1-1.1c-2.1,0.2-4.2,0.6-6.3,1.1c-2.1,0.5-4.1,1.1-6.2,1.7c-4.2,1.2-8.4,2.3-12.6,3.1c-4.3,0.8-8.6,1.3-12.9,1.6
		c-4.3,0.3-8.7,0.4-13,0.3c-4.3-0.1-8.7-0.2-13-0.6s-8.6-0.8-12.9-1.4S88.7,256.6,84.4,255.8z"></path><path class="st3" d="M108.1,241.3c0,0-1.2-16.9,0.2-19.8s22-16.7,23.4-16s-8.7,13.8-8.7,13.8s17.2-7.2,18.6-6.4s-0.6,4.7-0.6,4.7
		s1.8,0,0.1,4.3c0,0,1.2,0.9-2.3,3.8s-14.1,9-14.1,9l5.7,21.8C130.4,256.5,121.4,253.2,108.1,241.3z"></path><path class="st0" d="M123.7,227.3c1.2-1.1,2.6-2,4-2.8c1.4-0.8,2.9-1.5,4.4-2.1c1.5-0.6,3.1-1.1,4.7-1.3c0.8-0.1,1.7-0.2,2.5-0.1
		c0.4,0.1,0.9,0.2,1.3,0.4c0.4,0.2,0.7,0.6,0.8,1c-0.5-0.7-1.3-0.6-2-0.4c-0.7,0.2-1.5,0.4-2.2,0.6c-1.5,0.5-2.9,1.1-4.4,1.7
		s-2.9,1.1-4.4,1.7C126.9,226.4,125.3,226.9,123.7,227.3z"></path><path class="st0" d="M119.8,224.4c1.5-1.2,3.1-2.2,4.8-3.1c1.7-0.9,3.4-1.7,5.2-2.4c1.8-0.7,3.6-1.2,5.5-1.6c0.5-0.1,1-0.2,1.4-0.2
		s1-0.1,1.5-0.1c1,0,2,0.1,2.9,0.4c-1.8,0.2-3.6,0.7-5.4,1.4l-5.2,2c-1.7,0.7-3.5,1.3-5.2,1.9S121.7,224,119.8,224.4z"></path><path class="st0" d="M115.8,221.9c1.6-1,3.3-1.9,5-2.7c1.7-0.8,3.4-1.5,5.2-2.2c1.8-0.7,3.5-1.2,5.3-1.8c1.8-0.5,3.7-1,5.5-1.2
		c-1.6,1-3.3,1.9-5,2.7c-1.7,0.8-3.4,1.5-5.2,2.2c-1.7,0.7-3.5,1.3-5.3,1.8C119.5,221.2,117.7,221.6,115.8,221.9z"></path><path class="st2" d="M235.7,145.8c0,0,4.5-15.9,28.7,0s49.3,31.2,50.8,31.2s14.5-23.6,17.6-52.3c0,0,46.6,18.1,45,24.3
		c-4.5,17.3-31.5,53-45.3,61.4s-76.1-25.6-76.1-25.6L235.7,145.8z"></path><path class="st3" d="M332.8,124.7c0,0-2.6-18.8-11.1-27.7s1-8.9,8-2.8c0,0-1.9-23.6-4-29.7s8.3-5.8,11.3,19.9
		c0,0-0.3-12.7-1.1-18.6s4.9-7.4,7.6,5.7s3.6,21.2,3.6,21.2s0-13.8-1.3-18.4s4.9-5.7,8.3,9.5s7.7,51.4,7.7,54.2
		C361.8,139.2,332.8,124.7,332.8,124.7z"></path><path class="st0" d="M343.2,108c-0.6-3.3-2.3-6.4-4.7-8.8c-1.2-1.1-2.6-2.1-4.1-2.8c-0.4-0.2-0.8-0.4-1.1-0.6l-1.2-0.6
		c-0.8-0.3-1.6-0.6-2.5-1c0.9,0,1.8,0,2.7,0.1c0.9,0.1,1.8,0.3,2.7,0.6c1.8,0.6,3.5,1.6,4.9,2.9c1.4,1.3,2.4,3,3,4.8
		C343.6,104.3,343.7,106.2,343.2,108z"></path><path class="st2" d="M217.6,71.5c3.7,1.3,7.2,3.2,10.3,5.7c3.2,2.4,6,5.3,8.2,8.7c2.2,3.4,3.6,7.2,4.1,11.2c0.5,4,0,8-1.4,11.7
		c0.6-3.8,0.6-7.7-0.1-11.5c-0.4-1.8-0.9-3.7-1.6-5.4c-0.7-1.8-1.6-3.4-2.6-5c-2.1-3.2-4.6-6.1-7.5-8.6
		C224,75.8,220.9,73.5,217.6,71.5z"></path><path class="st2" d="M240,81.7c1.6,0.9,3,2.2,4.1,3.6c1.2,1.4,2.2,3,2.9,4.7c0.7,1.7,1.2,3.6,1.3,5.4c0.1,1.9-0.2,3.7-0.8,5.4
		c-0.1-1.8-0.4-3.5-0.7-5.2c-0.4-1.7-0.9-3.3-1.6-4.9c-0.7-1.6-1.5-3.1-2.3-4.6C242,84.7,241,83.3,240,81.7z"></path><path class="st1" d="M63.3,147.4c1.3,1.1,2.5,2.3,3.7,3.5c1.1,1.2,2.2,2.5,3.2,3.9c1,1.3,1.9,2.7,2.8,4.1c0.9,1.4,1.7,2.9,2.4,4.5
		c-1.3-1.1-2.5-2.3-3.6-3.5c-1.1-1.2-2.2-2.5-3.2-3.9s-1.9-2.7-2.8-4.1C64.8,150.4,64,148.9,63.3,147.4z"></path><path class="st1" d="M46.5,167.5c2.1,0.1,4.2,0.3,6.3,0.7c2.1,0.3,4.1,0.8,6.1,1.2s4,1,6,1.7c2,0.6,4,1.4,5.9,2.2
		c-2.1-0.1-4.2-0.3-6.3-0.7c-2.1-0.3-4.1-0.8-6.1-1.2s-4-1-6-1.7C50.4,169.1,48.4,168.4,46.5,167.5z"></path><path class="st1" d="M68.9,187.5c-0.8,0.5-1.8,0.9-2.7,1.2c-0.9,0.3-1.9,0.5-2.8,0.6c-0.9,0.1-1.9,0.2-2.9,0.2c-1,0-2-0.1-2.9-0.4
		c0.9-0.5,1.8-0.9,2.7-1.2c0.9-0.3,1.8-0.5,2.8-0.6c0.9-0.1,1.9-0.2,2.9-0.2C67,187.1,68,187.2,68.9,187.5z"></path></g><path class="st6" id="speech-bubble-2" d="M424.6,146.5l2.7,8.1l5.5-7.6c0,0,9.2,2.2,9.5,0.8s5.7-23.1,5.7-23.1s-35.8-10.6-36.3-9.2
	s-8.9,25.5-4.5,26.4S424.6,146.5,424.6,146.5z"></path><g id="character-2"><path class="st6" d="M369.4,193.9c0,0,26.1-8.6,26.6-7.6s-2.8,49.9-3.7,50.2s-25.1-6.5-25.1-6.5L369.4,193.9z"></path><path class="st4" d="M366.7,245.7c0,0,3.3-6.8,2.3-8s-10.4-13.5-9.5-15.5s13.2-9.4,13-7.7c-0.2,1-0.6,2-1.2,2.9c0,0,3.5-1,3,0.4
		s-4.9,6.5-4.9,6.5s3.8-2.3,4.6-1.4s-5.2,6.2-5.2,6.2s4.6,0,7.3,3.3s2.3,14.7,2.3,14.7L366.7,245.7z"></path><path class="st6" d="M379.3,258.4l-1-11.4c0,0-21.3-4.1-21.5-3.3s5.5,50.7,15.7,52.5s60.9-57.6,57.7-61.4s-12-6-21.6-0.1
		S379.3,258.4,379.3,258.4z"></path><path class="st6" d="M440.9,332.8l-24.3,1.4c0,0-25.3-99.9,5-104.2c0,0,32-6.4,48.7,12.5C470.4,242.5,474.4,307.6,440.9,332.8z"></path><path class="st4" d="M434.9,192.4c0,0-9.1,13.4-8.6,13.8c0.8,0.3,1.6,0.5,2.4,0.5c-3.8,7.6-6.3,15.9-7.2,24.3
		c0,0,15.4,3.3,24.3-0.8c0,0,11.2-36.4,8.6-38.5S434.9,192.4,434.9,192.4z"></path><path class="st0" d="M449.8,201.3c0,0-4.1,6.7-3.8,8.3s5.9-0.7,5.9-0.7s6.5-16.2,5.5-18.9s-38.9-1.2-36.5,1s14,1.4,14,1.4l11,2.7
		C445.9,195.2,447,199.6,449.8,201.3z"></path><path class="st4" d="M451.5,208.9c0,0,6.1-0.6,6.1-5.9s-7.6,2.7-7.6,2.7L451.5,208.9z"></path><polygon class="st5" points="427.8,232 431.9,239.8 445.8,230.3 421.6,230 413.8,236.2 	"></polygon><path class="st5" d="M442.3,202.8c0,0-4.4-3.6-7.6,0c-0.3,0.3-0.3,0.7,0,0.9c0,0,0.1,0.1,0.1,0.1
		C436.1,204.7,439.8,206.5,442.3,202.8z"></path><path class="st0" d="M442.5,202.9c-1.4-0.3-2.9-0.5-4.3-0.6c-1.4,0-2.7,0.3-3.9,1c0.1-0.9,0.6-1.7,1.3-2.2c0.8-0.5,1.7-0.8,2.6-0.8
		c0.9,0,1.8,0.3,2.5,0.8C441.6,201.4,442.2,202.1,442.5,202.9z"></path><path class="st0" d="M437.4,201.3c0,0,1.3,0.9-0.3,3.6c0,0-3.4-0.8-2.7-1.8C434.4,203.1,436.3,200.9,437.4,201.3z"></path><path class="st0" d="M441.4,214.1c-0.6,0-1.1,0-1.7-0.2c-1-0.3-1.9-0.8-2.6-1.4c-0.4-0.4-0.8-0.8-1.1-1.3c0.6-0.2,1.2-0.2,1.8-0.1
		c1.1,0.2,2,0.7,2.8,1.5C440.9,213,441.2,213.5,441.4,214.1z"></path><path class="st0" d="M443.8,200.8c-0.7,0-1.4-0.1-2.1-0.3c-0.7-0.1-1.3-0.3-1.9-0.5s-1.2-0.4-1.8-0.6c-0.7-0.3-1.3-0.6-1.9-1
		c1.4-0.7,2.9-0.8,4.3-0.3c0.7,0.2,1.4,0.5,2,1C443,199.5,443.5,200.1,443.8,200.8z"></path><path class="st5" d="M427.8,232c-1.2,1.4-2.2,2.8-3.2,4.2s-1.9,2.9-2.8,4.4s-1.8,3-2.6,4.5l-1.2,2.3c-0.4,0.8-0.8,1.6-1.3,2.4
		c0.1-0.9,0.2-1.8,0.4-2.7c0.2-0.9,0.4-1.8,0.8-2.6c0.6-1.7,1.4-3.4,2.3-4.9c0.9-1.6,2.1-3,3.3-4.3
		C424.7,233.9,426.2,232.8,427.8,232z"></path><path class="st3" d="M460.8,188.5c0.4-1.4,0.8-2.8,1.4-4.1c1.2-2.6,2.6-5.1,4.2-7.4c0.8-1.2,1.8-2.3,2.8-3.3
		c-0.4,1.4-0.8,2.8-1.5,4.1c-1.2,2.6-2.6,5.1-4.2,7.4C462.8,186.4,461.9,187.5,460.8,188.5z"></path><path class="st3" d="M465.1,194.6c0.7-0.4,1.4-0.6,2.1-0.8c0.7-0.1,1.4-0.2,2.1-0.2c0.7,0,1.4,0.1,2.1,0.2c0.7,0.1,1.5,0.4,2.1,0.8
		c-0.7,0.4-1.4,0.6-2.1,0.8c-0.7,0.1-1.4,0.2-2.1,0.2c-0.7,0-1.4-0.1-2.1-0.2C466.5,195.2,465.7,194.9,465.1,194.6z"></path></g><g id="bubble"><circle class="st6" cx="150" cy="27.8" r="6.9"></circle><circle class="st6" cx="91.8" cy="120.9" r="7.4"></circle><circle class="st6" cx="388.7" cy="379.2" r="9.8"></circle><circle class="st6" cx="288.7" cy="105.9" r="5.4"></circle></g><path class="st3" id="speech-bubble-1" d="M433,319.2l2.9-8.8l6.6,7.6c0,0,10.6-3,11-1.6s7.3,24.1,7.3,24.1s-41.1,14.1-41.8,12.8
	s-11.1-26.3-6-27.7S433,319.2,433,319.2z"></path></svg>