<svg version="1.1" id="Layer_1" xmlns="http://www.w3.org/2000/svg" xmlns:xlink="http://www.w3.org/1999/xlink" x="0px" y="0px" viewBox="0 0 500 500" style="width: 172px;" xml:space="preserve" data-imageid="daenerys-targaryen-29" imageName="Daenerys Targaryen" class="illustrations_image">
<style type="text/css">
	.st0_daenerys-targaryen-29{fill:#96CCBA;}
	.st1_daenerys-targaryen-29{opacity:0.4;fill:#441606;enable-background:new    ;}
	.st2_daenerys-targaryen-29{opacity:0.5;fill:url(#SVGID_1_);enable-background:new    ;}
	.st3_daenerys-targaryen-29{fill:#68E1FD;}
	.st4_daenerys-targaryen-29{fill:#5F5D51;}
	.st5_daenerys-targaryen-29{opacity:0.55;fill:#441606;enable-background:new    ;}
	.st6_daenerys-targaryen-29{opacity:0.63;}
	.st7_daenerys-targaryen-29{fill:#441606;}
	.st8_daenerys-targaryen-29{fill:#EAE3D1;}
	.st9_daenerys-targaryen-29{fill:#353942;}
	.st10_daenerys-targaryen-29{fill:#FFAC99;}
	.st11_daenerys-targaryen-29{opacity:0.2;fill:#441606;enable-background:new    ;}
	.st12_daenerys-targaryen-29{fill:#B22F26;}
</style>
<g id="field_daenerys-targaryen-29">
	<path class="st0_daenerys-targaryen-29" d="M246.1,471.5L30.7,344.2c-6.9-3.9-12.7-10.2-6.1-14.3l216.1-124.6c3.2-2,8.2-3.3,11.5-1.4l226.1,131.2"/>
	<path class="st1_daenerys-targaryen-29" d="M411.6,341.8l-146.6,83.7c-6.3,3.6-14,3.7-20.3,0.1l-154-91c-4.9-2.8-9.1-7.3-4.3-10.2l154.5-89.1&#10;&#9;&#9;c2.3-1.4,5.8-2.4,8.2-1l161.7,93.8"/>
</g>
<g id="daenerys_targaryen_daenerys-targaryen-29">
	
		<linearGradient id="SVGID_1_-daenerys-targaryen-29" gradientUnits="userSpaceOnUse" x1="220.6401" y1="91.6299" x2="281.3501" y2="178.0899" gradientTransform="matrix(-1 0 0 -1 542.11 502)">
		<stop offset="0" style="stop-color:#FFFFFF;stop-opacity:0"/>
		<stop offset="1" style="stop-color:#000000"/>
	</linearGradient>
	<polyline class="st2_daenerys-targaryen-29" points="414.6,373.2 310.3,432.7 153.9,341.5 272.5,296 395.9,362.3 &#9;"/>
	<path class="st3_daenerys-targaryen-29 targetColor" d="M165.6,322.9c-0.4-2-40.3-109.5-40.3-109.5s43.9,87.8,43.9,89S165.6,322.9,165.6,322.9z" style="fill: rgb(104, 225, 253);"/>
	<path class="st3_daenerys-targaryen-29 targetColor" d="M169.2,291.9c0,0-41.5-128-40.7-129.2s45.5,111.9,45.5,111.9L169.2,291.9z" style="fill: rgb(104, 225, 253);"/>
	<path class="st3_daenerys-targaryen-29 targetColor" d="M176.1,269.9c0-1-47.5-107.2-47.5-107.2l50.3,96.6L176.1,269.9z" style="fill: rgb(104, 225, 253);"/>
	<path class="st3_daenerys-targaryen-29 targetColor" d="M135.4,126c0.4,1.2,43.5,133.3,43.5,133.3s10.5-13.7,10.5-15.7S135.4,126,135.4,126z" style="fill: rgb(104, 225, 253);"/>
	<polygon class="st3_daenerys-targaryen-29 targetColor" points="178.9,240.3 147.3,101 186.9,229 &#9;" style="fill: rgb(104, 225, 253);"/>
	<path class="st3_daenerys-targaryen-29 targetColor" d="M191.8,213.3c0,0-35.4-136.1-34.2-134.1s55.6,161.1,55.6,161.1l-9.7,6.8L191.8,213.3z" style="fill: rgb(104, 225, 253);"/>
	<polygon class="st3_daenerys-targaryen-29 targetColor" points="203.9,222.2 178.9,77.2 209.9,206.9 &#9;" style="fill: rgb(104, 225, 253);"/>
	<path class="st3_daenerys-targaryen-29 targetColor" d="M186.9,48.7c-0.4,1.6,18.5,164.7,18.5,164.7l10.9-2L186.9,48.7" style="fill: rgb(104, 225, 253);"/>
	<path class="st3_daenerys-targaryen-29 targetColor" d="M207.9,39c0,1.6,21.3,177.2,21.3,177.2s-16.1,1.7-16.1,0S207.9,39,207.9,39" style="fill: rgb(104, 225, 253);"/>
	<path class="st3_daenerys-targaryen-29 targetColor" d="M227.2,39c0,0.8,10.5,170.7,10.5,170.7l-12.1-5.2L227.2,39" style="fill: rgb(104, 225, 253);"/>
	<path class="st3_daenerys-targaryen-29 targetColor" d="M240.9,28.5l7.6,177.2c0,0-16.1-7.2-16.9-7.2S240.9,28.5,240.9,28.5" style="fill: rgb(104, 225, 253);"/>
	<polyline class="st3_daenerys-targaryen-29 targetColor" points="259.8,53.9 242.1,197.2 261.8,195.6 259.8,53.9 &#9;" style="fill: rgb(104, 225, 253);"/>
	<path class="st3_daenerys-targaryen-29 targetColor" d="M251.7,247c0.4-3.2,29-169.7,29-169.7S259.5,249.7,259.5,251C259.1,265.4,251.7,247,251.7,247z" style="fill: rgb(104, 225, 253);"/>
	<path class="st4_daenerys-targaryen-29" d="M165.6,322.9c-0.4-2-40.3-109.5-40.3-109.5s43.9,87.8,43.9,89S165.6,322.9,165.6,322.9z"/>
	<path class="st4_daenerys-targaryen-29" d="M169.2,291.9c0,0-41.5-128-40.7-129.2s45.5,111.9,45.5,111.9L169.2,291.9z"/>
	<path class="st4_daenerys-targaryen-29" d="M176.1,269.9c0-1-47.5-107.2-47.5-107.2l50.3,96.6L176.1,269.9z"/>
	<path class="st4_daenerys-targaryen-29" d="M135.4,126c0.4,1.2,43.5,133.3,43.5,133.3s10.5-13.7,10.5-15.7S135.4,126,135.4,126z"/>
	<polygon class="st4_daenerys-targaryen-29" points="178.9,240.3 147.3,101 186.9,229 &#9;"/>
	<path class="st4_daenerys-targaryen-29" d="M191.8,213.3c0,0-35.4-136.1-34.2-134.1s55.6,161.1,55.6,161.1l-9.7,6.8L191.8,213.3z"/>
	<polygon class="st4_daenerys-targaryen-29" points="203.9,222.2 178.9,77.2 209.9,206.9 &#9;"/>
	<path class="st4_daenerys-targaryen-29" d="M186.9,48.7c-0.4,1.6,18.5,164.7,18.5,164.7l10.9-2L186.9,48.7"/>
	<path class="st4_daenerys-targaryen-29" d="M207.9,39c0,1.6,21.3,177.2,21.3,177.2s-16.1,1.7-16.1,0S207.9,39,207.9,39"/>
	<path class="st4_daenerys-targaryen-29" d="M227.2,39c0,0.8,10.5,170.7,10.5,170.7l-12.1-5.2L227.2,39"/>
	<path class="st4_daenerys-targaryen-29" d="M240.9,28.5l7.6,177.2c0,0-16.1-7.2-16.9-7.2S240.9,28.5,240.9,28.5"/>
	<polyline class="st4_daenerys-targaryen-29" points="259.8,53.9 242.1,197.2 261.8,195.6 259.8,53.9 &#9;"/>
	<path class="st4_daenerys-targaryen-29" d="M251.7,247c0.4-3.2,29-169.7,29-169.7S259.5,249.7,259.5,251C259.1,265.4,251.7,247,251.7,247z"/>
	<path class="st3_daenerys-targaryen-29 targetColor" d="M254.7,245.5l6.7-114.6l-15.6,100.4l10.7-126.5l-17.8,106.1V85.5c0,1.3-9.8,141.5-9.8,141.5l-6.2-139.3&#10;&#9;&#9;l-7.1,134.1l-8.9-125.6c0,0,3.6,112.3,3.1,111s-18.7-98.5-18.7-98.5l7.1,118.3L165,132.6l19.1,104l-29.8-78.3l20.4,110.6&#10;&#9;&#9;l-35.1-84.3c0,0,25.4,118.6,26.7,123.1s-6.7,13.3-5.3,13.8s33.3-50.6,33.3-50.6l28-28.4L254.7,245.5z" style="fill: rgb(104, 225, 253);"/>
	<polyline class="st4_daenerys-targaryen-29" points="326.2,292.6 331.4,354 322.2,296.4 &#9;"/>
	<polygon class="st3_daenerys-targaryen-29 targetColor" points="343.7,329.7 345.9,352.2 331.4,333.6 329.7,350.8 319.9,329.7 320.8,360.2 312,333.6 309.1,368.5 &#10;&#9;&#9;298.4,340.1 293,370.3 283.5,356 276,383.7 270.8,364.6 256.9,383.7 248,370.3 241.7,379.3 229.6,363.4 226.1,374.2 216.2,354 &#10;&#9;&#9;214,368.5 204.8,351.1 191.2,352.2 175,352.2 179,347.2 166.4,348.9 168.1,341.2 157.6,342.5 164.6,307.9 171,291.2 176.4,280.3 &#10;&#9;&#9;169.4,248.7 171.8,227.8 188.3,252.2 184.5,223.5 205.9,247 202.3,216.8 217.4,236.9 213.1,190.1 227.1,229 241.7,194 247.1,236.2 &#10;&#9;&#9;261.9,210.7 265.5,249.9 273.2,208.8 274.5,263.7 287.7,215.6 286.5,263.8 304.3,249.5 298.4,272.5 313.9,263.8 312,282.2 &#10;&#9;&#9;328.2,280.3 331.4,301 &#9;" style="fill: rgb(104, 225, 253);"/>
	<polygon class="st1_daenerys-targaryen-29" points="343.7,329.7 345.9,352.2 331.4,333.6 329.7,350.8 319.9,329.7 320.8,360.2 312,333.6 309.1,368.5 &#10;&#9;&#9;298.4,340.1 293,370.3 283.5,356 276,383.7 270.8,364.6 256.9,383.7 248,370.3 241.7,379.3 229.6,363.4 226.1,374.2 216.2,354 &#10;&#9;&#9;214,368.5 204.8,351.1 191.2,352.2 175,352.2 179,347.2 166.4,348.9 168.1,341.2 157.6,342.5 164.6,307.9 171,291.2 176.4,280.3 &#10;&#9;&#9;169.4,248.7 171.8,227.8 188.3,252.2 184.5,223.5 205.9,247 202.3,216.8 217.4,236.9 213.1,190.1 227.1,229 241.7,194 247.1,236.2 &#10;&#9;&#9;261.9,210.7 265.5,249.9 273.2,208.8 274.5,263.7 287.7,215.6 286.5,263.8 304.3,249.5 298.4,272.5 313.9,263.8 312,282.2 &#10;&#9;&#9;328.2,280.3 331.4,301 &#9;"/>
	<path class="st4_daenerys-targaryen-29" d="M336.8,328.5c0,0.6,2.5,7,4.8,13c2.2,5.5,4.3,10.7,4.3,10.7l-14.5-18.6l-1.2-24.6l-14.2-17.8l6.3,17.8v19&#10;&#9;&#9;l1.5,7.6l1.5,7.9l7.1,23.1l-12.5-25.4l-3.9-16.9l-5.1-17.8l-11.2-13.9l0.7,8.4l4.9,25.3l-0.5,10.3l7.4,33.7l-12.4-34.7l-6.6,34.7&#10;&#9;&#9;l-1.5-36.7l-12.4,50.6L276,354l-8.5,32.6l-6.8-27.9l-5.7,26.7l2-38l0.6-24.1l-6.7,30.7l1.6-43.1l27.3-9.3l7.3-16.2l29.5-5.2&#10;&#9;&#9;l14.8,13.8l9.1,21l3.2,14.7l-8-15L336.8,328.5z"/>
	<path class="st3_daenerys-targaryen-29 targetColor" d="M188.3,297.7l77.5-42.1l46.3,28l14.1,11c0,0-22.9,16.5-23,17.2s-13.9,9.2-13.9,9.2l-31.2,3l-9.7,3.9&#10;&#9;&#9;L188.3,297.7z" style="fill: rgb(104, 225, 253);"/>
	<path class="st5_daenerys-targaryen-29" d="M188.3,297.7l77.5-42.1l46.3,28l14.1,11c0,0-22.9,16.5-23,17.2s-13.9,9.2-13.9,9.2l-31.2,3l-9.7,3.9&#10;&#9;&#9;L188.3,297.7z"/>
	<path class="st4_daenerys-targaryen-29" d="M239,152.7c0,0-5.1-2.2-4.5-5.4s3.2-4.8,5.7-4.1s6.1,2.9,4.5,7.2C243.6,153.2,239,152.7,239,152.7z"/>
	<ellipse class="st4_daenerys-targaryen-29" cx="221" cy="126.8" rx="4.3" ry="5.9"/>
	<polygon class="st3_daenerys-targaryen-29 targetColor" points="241.7,171 234.5,268.4 229.2,268.4 236.5,170.4 &#9;" style="fill: rgb(104, 225, 253);"/>
	<path class="st3_daenerys-targaryen-29 targetColor" d="M227.4,151.8c0,0,0.9,108.9,0,109.3s-5.1,1.5-5.1,1.5L220,152.7L227.4,151.8z" style="fill: rgb(104, 225, 253);"/>
	<path class="st3_daenerys-targaryen-29 targetColor" d="M187.9,149.8c2.1,2.2,34.3,107.6,34.3,108.6s-2.3,6.8-2.3,6.8l-35.5-113.5" style="fill: rgb(104, 225, 253);"/>
	<path class="st3_daenerys-targaryen-29 targetColor" d="M159.9,198.6c1.1,0.2,11.3,3.9,11.3,3.9l37,21l43.6,33.1l-54-29l-39.9-26.2" style="fill: rgb(104, 225, 253);"/>
	<path class="st3_daenerys-targaryen-29 targetColor" d="M159.2,221.7c1.3,0.2,87.9,39.1,87.9,39.1L178,235.2l-20.4-10.5" style="fill: rgb(104, 225, 253);"/>
	<path class="st3_daenerys-targaryen-29 targetColor" d="M174.4,175.7c0.2,0.7,5.8,13.5,5.8,13.5l2.5,1.5c0,0,35.5,89.8,34.6,90.7s-6-2.4-6-2.4l-35.7-87.5l-3.9-13.3" style="fill: rgb(104, 225, 253);"/>
	<polygon class="st1_daenerys-targaryen-29" points="241.7,171 234.5,268.4 229.2,268.4 236.5,170.4 &#9;"/>
	<path class="st1_daenerys-targaryen-29" d="M227.4,151.8c0,0,0.9,108.9,0,109.3s-5.1,1.5-5.1,1.5L220,152.7L227.4,151.8z"/>
	<path class="st1_daenerys-targaryen-29" d="M187.9,149.8c2.1,2.2,34.3,107.6,34.3,108.6s-2.3,6.8-2.3,6.8l-35.5-113.5"/>
	<path class="st1_daenerys-targaryen-29" d="M159.9,198.6c1.1,0.2,11.3,3.9,11.3,3.9l37,21l43.6,33.1l-54-29l-39.9-26.2"/>
	<path class="st1_daenerys-targaryen-29" d="M159.2,221.7c1.3,0.2,87.9,39.1,87.9,39.1L178,235.2l-20.4-10.5"/>
	<path class="st1_daenerys-targaryen-29" d="M174.4,175.7c0.2,0.7,5.8,13.5,5.8,13.5l2.5,1.5c0,0,35.5,89.8,34.6,90.7s-6-2.4-6-2.4l-35.7-87.5l-3.9-13.3"/>
	<path class="st3_daenerys-targaryen-29 targetColor" d="M305,284.8l39.6-10.8l1.9,8.2c0,0-1.6,5.4,2.6,6s0-6.3,0-6.3L347,272l12.3-3.3h3.5l2.5-2.1&#10;&#9;&#9;c1.3-0.3,2.6-0.3,3.9,0c1.6,0.5,1-5.2,0-6.1s-3.9,0-3.9,0l-0.5,2.5c0,0-4.4-0.2-5.1,0.7s-13,4.4-13,4.4l-3.1-11&#10;&#9;&#9;c0,0,0.2-5.6-2.3-5.4s0.5,6.5,0.5,6.5l1.8,10.5l-52,13.3l8.9,4.9L305,284.8z" style="fill: rgb(104, 225, 253);"/>
	<path class="st3_daenerys-targaryen-29 targetColor" d="M294.4,279.4l2.5-41l8.4,0.9c0,0,4.6,3.2,6.5-0.6s-6-2-6-2l-10-1.2l0.8-12.7l1.1-3.3l-1.2-3&#10;&#9;&#9;c0.1-1.3,0.6-2.5,1.2-3.6c1-1.3-4.6-2.7-5.8-2s-1.2,3.6-1.2,3.6l2.1,1.3c0,0-1.6,4.1-1,5s0,13.7,0,13.7l-11.4-0.5&#10;&#9;&#9;c0,0-5.2-2-5.9,0.4s6.3,1.6,6.3,1.6l10.5,1.7l-4.2,53.5l7.5-6.9L294.4,279.4z" style="fill: rgb(104, 225, 253);"/>
	<path class="st3_daenerys-targaryen-29 targetColor" d="M288.4,278.6l19.7-36.1l7.2,4.4c0,0,2.8,4.9,6.1,2.2s-4.5-4.4-4.5-4.4l-8.5-5.3l6.1-11.1l2.4-2.5l0.2-3.2&#10;&#9;&#9;c0.7-1.1,1.6-2.1,2.7-2.8c1.5-0.8-3-4.4-4.4-4.2s-2.7,2.8-2.7,2.8l1.4,2.1c0,0-3.2,3-3,4.1s-5.9,12.4-5.9,12.4l-10.1-5.4&#10;&#9;&#9;c0,0-3.9-4-5.5-2.1s5,4.1,5,4.1l8.8,6l-26.5,46.7l9.7-3L288.4,278.6z" style="fill: rgb(104, 225, 253);"/>
	<path class="st3_daenerys-targaryen-29 targetColor" d="M290,281.4l28.2-29.9l5.9,6c0,0,1.5,5.5,5.3,3.7s-3.3-5.4-3.3-5.4l-6.9-7.3l8.8-9.2l3-1.8l1-3.1&#10;&#9;&#9;c0.9-0.9,2.1-1.6,3.3-2c1.6-0.4-1.8-5-3.2-5.2s-3.3,2-3.3,2l0.8,2.4c0,0-3.8,2.1-4,3.2s-8.8,10.5-8.8,10.5l-8.4-7.8&#10;&#9;&#9;c0,0-2.8-4.9-4.8-3.4s3.8,5.3,3.8,5.3l7,8L277,285.8l10.2-0.5L290,281.4z" style="fill: rgb(104, 225, 253);"/>
	<path class="st3_daenerys-targaryen-29 targetColor" d="M309.7,293.2l26.9-38.8l7.7,5.9c0,0,2.6,5.9,6.7,3.3s-4.6-5.5-4.6-5.5l-9.1-7.1l8.3-12l3.1-2.6l0.6-3.7&#10;&#9;&#9;c0.9-1.2,2.1-2.2,3.4-2.8c1.8-0.7-3-5.4-4.5-5.4s-3.4,2.9-3.4,2.9l1.3,2.5c0,0-4,3.1-4,4.4s-8.2,13.4-8.2,13.4l-10.9-7.4&#10;&#9;&#9;c0,0-4-5.1-6-3.1s5.2,5.3,5.2,5.3l9.3,8l-36,50.1l11.5-2.3L309.7,293.2z" style="fill: rgb(104, 225, 253);"/>
	<g class="st6_daenerys-targaryen-29">
		<path class="st7_daenerys-targaryen-29" d="M305,284.8l39.6-10.8l1.9,8.2c0,0-1.6,5.4,2.6,6s0-6.3,0-6.3L347,272l12.3-3.3h3.5l2.5-2.1&#10;&#9;&#9;&#9;c1.3-0.3,2.6-0.3,3.9,0c1.6,0.5,1-5.2,0-6.1s-3.9,0-3.9,0l-0.5,2.5c0,0-4.4-0.2-5.1,0.7s-13,4.4-13,4.4l-3.1-11&#10;&#9;&#9;&#9;c0,0,0.2-5.6-2.3-5.4s0.5,6.5,0.5,6.5l1.8,10.5l-52,13.3l8.9,4.9L305,284.8z"/>
		<path class="st7_daenerys-targaryen-29" d="M294.4,279.4l2.5-41l8.4,0.9c0,0,4.6,3.2,6.5-0.6s-6-2-6-2l-10-1.2l0.8-12.7l1.1-3.3l-1.2-3&#10;&#9;&#9;&#9;c0.1-1.3,0.6-2.5,1.2-3.6c1-1.3-4.6-2.7-5.8-2s-1.2,3.6-1.2,3.6l2.1,1.3c0,0-1.6,4.1-1,5s0,13.7,0,13.7l-11.4-0.5&#10;&#9;&#9;&#9;c0,0-5.2-2-5.9,0.4s6.3,1.6,6.3,1.6l10.5,1.7l-4.2,53.5l7.5-6.9L294.4,279.4z"/>
		<path class="st7_daenerys-targaryen-29" d="M288.4,278.6l19.7-36.1l7.2,4.4c0,0,2.8,4.9,6.1,2.2s-4.5-4.4-4.5-4.4l-8.5-5.3l6.1-11.1l2.4-2.5l0.2-3.2&#10;&#9;&#9;&#9;c0.7-1.1,1.6-2.1,2.7-2.8c1.5-0.8-3-4.4-4.4-4.2s-2.7,2.8-2.7,2.8l1.4,2.1c0,0-3.2,3-3,4.1s-5.9,12.4-5.9,12.4l-10.1-5.4&#10;&#9;&#9;&#9;c0,0-3.9-4-5.5-2.1s5,4.1,5,4.1l8.8,6l-26.5,46.7l9.7-3L288.4,278.6z"/>
		<path class="st7_daenerys-targaryen-29" d="M290,281.4l28.2-29.9l5.9,6c0,0,1.5,5.5,5.3,3.7s-3.3-5.4-3.3-5.4l-6.9-7.3l8.8-9.2l3-1.8l1-3.1&#10;&#9;&#9;&#9;c0.9-0.9,2.1-1.6,3.3-2c1.6-0.4-1.8-5-3.2-5.2s-3.3,2-3.3,2l0.8,2.4c0,0-3.8,2.1-4,3.2s-8.8,10.5-8.8,10.5l-8.4-7.8&#10;&#9;&#9;&#9;c0,0-2.8-4.9-4.8-3.4s3.8,5.3,3.8,5.3l7,8L277,285.8l10.2-0.5L290,281.4z"/>
		<path class="st7_daenerys-targaryen-29" d="M309.7,293.2l26.9-38.8l7.7,5.9c0,0,2.6,5.9,6.7,3.3s-4.6-5.5-4.6-5.5l-9.1-7.1l8.3-12l3.1-2.6l0.6-3.7&#10;&#9;&#9;&#9;c0.9-1.2,2.1-2.2,3.4-2.8c1.8-0.7-3-5.4-4.5-5.4s-3.4,2.9-3.4,2.9l1.3,2.5c0,0-4,3.1-4,4.4s-8.2,13.4-8.2,13.4l-10.9-7.4&#10;&#9;&#9;&#9;c0,0-4-5.1-6-3.1s5.2,5.3,5.2,5.3l9.3,8l-36,50.1l11.5-2.3L309.7,293.2z"/>
	</g>
	<polygon class="st4_daenerys-targaryen-29" points="274.5,263.7 289.1,313.8 280.3,311.8 269,254.6 &#9;"/>
	<polyline class="st4_daenerys-targaryen-29" points="245,265.3 247.1,266.1 297.8,286.3 314.7,299.3 308.3,305.7 294.6,291.2 &#9;"/>
	<polygon class="st4_daenerys-targaryen-29" points="235.5,273.3 299.6,306.5 293.3,312 &#9;"/>
	<polygon class="st4_daenerys-targaryen-29" points="189.8,292.6 187.6,295.6 240.6,322.1 261.9,325.3 &#9;"/>
	<path class="st4_daenerys-targaryen-29" d="M211.1,281.5c0,0.1,24.4,34.2,24.4,34.2L248,319l-28-42L211.1,281.5z"/>
	<polygon class="st4_daenerys-targaryen-29" points="229.6,275 248,297.1 280.3,311.8 267.5,317.7 245,301.2 &#9;"/>
	<polygon class="st4_daenerys-targaryen-29" points="309.1,299 243,270.3 299.6,304.2 &#9;"/>
	<path class="st4_daenerys-targaryen-29" d="M256.8,260.9l52.3,18.3l17.2,13.5c0,0-2.6,4-4,3.7S256.8,260.9,256.8,260.9z"/>
	<path class="st4_daenerys-targaryen-29" d="M276.9,254.6c0.7,0.7,26.1,46.4,26.1,46.4l6-2L276.9,254.6z"/>
	<polygon class="st4_daenerys-targaryen-29" points="236.6,273.3 221.5,279.3 282,294 &#9;"/>
	<polygon class="st4_daenerys-targaryen-29" points="265.5,255.6 253.1,260.9 279.1,270.3 295.7,272 &#9;"/>
	<path class="st4_daenerys-targaryen-29" d="M202.3,285.5c-0.6-0.5-7.7,5.7-7.7,5.7l64.9,26.5l-12.3-10.1L202.3,285.5z"/>
	<polygon class="st4_daenerys-targaryen-29" points="270.8,313.8 217.4,281.4 229.6,275 &#9;"/>
	<path class="st4_daenerys-targaryen-29" d="M314.7,299.3l-1.5,28.7l6.6,40.5c0,0-12-40.5-12-41.7s0.5-21,0.5-21L314.7,299.3z"/>
	<polyline class="st4_daenerys-targaryen-29" points="299.6,306.5 298.3,324.3 296.5,333.9 309.1,375.9 296.5,348.6 291.5,333.6 293.3,312 &#9;"/>
	<polyline class="st4_daenerys-targaryen-29" points="289.1,313.8 283.3,341.2 286.2,362.4 282,373.2 279.1,345.9 274.4,333.9 280.3,311.8 &#9;"/>
	<polyline class="st4_daenerys-targaryen-29" points="267.5,317.7 269,356.7 265.1,386.7 263.1,354 263.1,317.7 &#9;"/>
	<path class="st4_daenerys-targaryen-29" d="M273.2,211c0,0-3.1-9.3-6.2-20.7c0,0-2.4-3.1-1.2-4.5s5,0,3.5,3.8c0,0,4.9,11.6,5.6,19.5c0,0,3.1,2.1,1.6,4.1&#10;&#9;&#9;S271.5,212.9,273.2,211z"/>
	<path class="st4_daenerys-targaryen-29" d="M271.2,194.5l15.1-11.4c0,0,4.8-7.2,5.3-7.4s4.3,6.5,4,7.4s-6.5,2-6.5,2L273,197.5c0,0-40.9,37.3-74.5,64.7&#10;&#9;&#9;s-28.8,24.1-28.8,24.1s58.5-61.6,99.3-91.3"/>
	<ellipse class="st4_daenerys-targaryen-29" cx="157.8" cy="199.7" rx="4.8" ry="4.1"/>
	<circle class="st4_daenerys-targaryen-29" cx="157.6" cy="222.7" r="5.1"/>
	<path class="st4_daenerys-targaryen-29" d="M167.1,202.2c0.6,0.2,12-10.7,12-10.7l-13.3,26.1l-1.3-1.9L167.1,202.2z"/>
	<path class="st4_daenerys-targaryen-29" d="M177,216.8l-12.4,24.5c3.9-1.9,7.3-4.5,10.1-7.8C178.9,228.3,177,216.8,177,216.8z"/>
	<ellipse class="st4_daenerys-targaryen-29" cx="173.1" cy="175.7" rx="3.9" ry="4.8"/>
	<path class="st4_daenerys-targaryen-29" d="M188.3,181.9l-21.2,12.4c0,0,7,2.7,12,1.3S188.3,181.9,188.3,181.9z"/>
	<ellipse class="st4_daenerys-targaryen-29" cx="186.6" cy="149.7" rx="3.9" ry="4.8"/>
	<path class="st4_daenerys-targaryen-29" d="M223.2,128c-0.2,0.9,1.1,19.9,1.1,19.9l10.2-3.8l-7,7.7l-8.8,2.8l-5.8-1.8l7.3-3v-20"/>
	<polygon class="st4_daenerys-targaryen-29" points="205.9,163.1 199.9,163.1 182.3,176.2 180.2,183.1 &#9;"/>
	<path class="st4_daenerys-targaryen-29" d="M241.7,149.8v19c0,0,3.8-2.6,4.9-5.4s0.3-4.3,1.9-4.1s3.8-0.6,3,1.8s-2.7,8.1-9.9,9.9s-14.3-0.5-15.1-1.8&#10;&#9;&#9;s0.8-3.5,2.1-3.5s1.4,1.4,2.4,1.8s3.3,2.2,7,1.8l0.5-19.4"/>
	<path class="st7_daenerys-targaryen-29" d="M256,217.9c0,0-14.5,2-17.1,6s-4.2,47.1-8.5,56.5s-27.8,57.5-25.7,69s12.6,6.3,23.4,10.9s13.1,10.6,22.7,10.1&#10;&#9;&#9;s25.2-4.2,29-6.7s15.1-11.5,19.3-12.9s16.4-51.5,8.8-57.4"/>
	<path class="st8_daenerys-targaryen-29" d="M248.1,207.8c0,0-6.4,13-3.3,15.7s3.9,3.7,4.7,2.9s2.5-13.8,2.5-13.8"/>
	<path class="st9_daenerys-targaryen-29" d="M275.6,255.8c0,0,34.7,11.5,40.4,27.1s0.2,61-4,64c0,0-8.9,1.8-14.8-11c0,0-1-20.3-0.2-34.1&#10;&#9;&#9;c0,0-18-0.1-29.4-9.5c-6.8-5.6-9.7-32.5-5.7-35.6S273.4,239.6,275.6,255.8z"/>
	<path class="st9_daenerys-targaryen-29" d="M270.1,262.6c0,0,24.5,9.3,30.2,24.9s6.2,71.8,2.1,74.8c0,0-3.1,8.3-9-4.5c0,0-14.6-39.1-13.8-53&#10;&#9;&#9;c0,0-14.5-5-25.9-14.5c-6.8-5.6-6.8-25.1-2.7-28.2S267.9,246.5,270.1,262.6z"/>
	<path class="st10_daenerys-targaryen-29" d="M305.4,268.9c2.2,2.2,5.9,6,6.7,6.9c1.2,1.2-0.1,6.5-1.8,6.5s-4.9-4.2-4.9-4.2s0.6,3.2-0.8,3.4&#10;&#9;&#9;s-0.8-4.3-1.4-5s-2.9-4.9-3.1-4.8l0.5-0.6C302.2,270.7,303.9,269.9,305.4,268.9z"/>
	<path d="M278.5,265.6l1-0.1c11.7,6.5,21.8,15.5,24.3,29.4c1.6,8.8,1.4,18.1,1.8,27c0.5,10.9,1,21.8,1.5,32.7c0.1,1.9-2.9,1.9-3,0&#10;&#9;&#9;c-0.8-17.1-1.3-34.4-2.4-51.5c-1.2-18.4-11.7-29-27.5-37c0,0-0.1,0-0.1-0.1C275.6,266,277,265.9,278.5,265.6z"/>
	<path d="M268.5,222.2c0,0,7-5.2,11.5-2.5s-0.6,28.3,1,30.6s26.6,17,24.7,19.6s-8.5,5.8-8.5,5.8s-20.7-14.3-22-16.4&#10;&#9;&#9;s-3.9-5.7-3.9-5.7"/>
	<path d="M314,345.7c0,0,0.6,4.9,3.6,6.9s13.4,4.7,11.8,8.5s-8.4,4.4-11.8,3.6s-15-8.4-15-8.4l1.8-16.7"/>
	<path d="M303,356.9c0,0,0.6,5,3.7,7s13.6,4.7,12,8.6s-8.5,4.5-12,3.6s-15.2-8.5-15.2-8.5l1.9-16.9"/>
	<path class="st10_daenerys-targaryen-29" d="M265.4,216.5c0,0,2.6,9.1,0.4,13.2s-12.1-2.4-12.1-2.4v-15.4l1.5,5.9"/>
	<path class="st11_daenerys-targaryen-29" d="M265.4,216.5c0,0,2.6,9.1,0.4,13.2s-12.1-2.4-12.1-2.4v-15.4l1.5,5.9"/>
	<path class="st9_daenerys-targaryen-29" d="M253,223c0,0,8.8,5.4,9,5s4.2-7.7,4.2-7.7l2.5-3.7c0,0,4.5-0.7,6.5,0.3s4.5,14.4,2.3,23.9s-1.9,22-8.7,24.8&#10;&#9;&#9;s-16.1,0.6-18-3.2s-15.4-36-11.9-38.4S253,223,253,223z"/>
	<path class="st8_daenerys-targaryen-29" d="M252.7,186c9.1-3.9,15.9-1.1,18.2,7.9s0.5,9.2-1,11.4l-1.8-11.7c0.1,2.2-0.6,4.3-2,6l-1.2-3.2&#10;&#9;&#9;c-0.3,2.2-1.3,4.2-2.8,5.8c-2.4,2.2-3.9-0.3-3.9-0.3s-1.5,1.6-1.3,4.9c0,1.6-0.1,3.2-0.4,4.7c-0.1,0-0.3,0.1-0.4,0.1&#10;&#9;&#9;c-0.8-0.5,1.8,2.5,0.2,2.3C239.6,211.3,241,191.1,252.7,186z"/>
	<path class="st10_daenerys-targaryen-29" d="M251,204.8c1-1.5,3.2-1.3,4.4-0.1c1.2,1.2,2.1,2.7,2.5,4.4c1.6,0.5,0.8,3.1-1,2.8&#10;&#9;&#9;C254.2,211.4,248.6,208.2,251,204.8z"/>
	<path class="st8_daenerys-targaryen-29" d="M271.6,213.1c0.1,0.2,0.1,0.4,0.2,0.6c-0.1,1.1-0.5,2.2-1.1,3.2c-0.1-0.1-0.2-0.3-0.2-0.5c0.2-2.8-3.1-4.2-3-7&#10;&#9;&#9;s5-6.8,2.1-9.4c-0.7-0.6,0.3-1.7,1.1-1.1c0.6,0.5,1,1.1,1.2,1.8c0,0,0.1,0.1,0.1,0.1c1,2.4-0.2,4-1.3,6.1&#10;&#9;&#9;C269.3,209.3,270.7,210.9,271.6,213.1z"/>
	<path class="st10_daenerys-targaryen-29" d="M269.1,196c0,0,3.5,17.6-4.4,21.3c-5.7,2.7-9.8-4.7-10.7-9.3c-1.2-5.4,1.3-11.1,5.4-14.6&#10;&#9;&#9;C263.1,190.3,268.1,190.6,269.1,196z"/>
	<path class="st8_daenerys-targaryen-29" d="M255.6,198.2c0,0,2.8,6.3,1.3,8.5s-2.3,2.9-0.7,4.8c1.5,1.9,5.2,2.6,2.5,6.9s-5,3-5,3s5-0.4,2.3-3.6&#10;&#9;&#9;s-6.3-7-4.3-10s2-6,0.7-6.9"/>
	<path d="M239,223.8c0,0,4.9-1.6,7.8,0.6s10.5,31.3,9.6,33.6l30.9,19.5c0,0-5.3,9.4-7,8.4s-25.9-13.9-32-19.2S234.2,235.1,239,223.8&#10;&#9;&#9;z"/>
	<path class="st12_daenerys-targaryen-29" d="M246.2,227.2c0,0,0.2-3.9,3.8-4.5s8.3,2.1,8.9,3.9s14.4,22,15.9,26.9s22.1,16.2,24.9,22.1s8.1,33.7,7.2,35.3&#10;&#9;&#9;s-8.3,3.3-11.6,1.8s-1.3-32-6-35S266,260,262.8,257.5S246.2,227.2,246.2,227.2z"/>
	<path class="st10_daenerys-targaryen-29" d="M287.1,277.5c1.8,1,6.3,3.7,6.9,4.7c0.7,1.1-2.4-0.1-2.4,0.4s4.5,3.7,4.5,5.7s0.8,3-0.6,3.7s-5.5-2.1-7.1-2.9&#10;&#9;&#9;c-1-0.5-3.8-3.2-6-5.4C284.4,281.9,286,279.8,287.1,277.5z"/>
	<path d="M182.2,334l-1.2-42.3l8.7,0.1c0,0,5.1,2.9,6.6-1.2s-6.3-1.5-6.3-1.5l-10.3-0.3l-0.4-13.1l0.9-3.5l-1.5-3&#10;&#9;&#9;c0-1.3,0.3-2.7,0.9-3.9c0.9-1.5-5-2.3-6.1-1.5s-0.9,3.9-0.9,3.9l2.3,1.1c0,0-1.2,4.3-0.5,5.2s1.2,14,1.2,14l-11.8,0.5&#10;&#9;&#9;c0,0-5.6-1.5-6,1s6.6,1,6.6,1l10.9,0.8l0.7,55.3l0,0L182.2,334z"/>
	<path d="M214.7,342l4.4-47.2l9.6,1.3c0,0,5.2,3.9,7.5-0.4s-6.8-2.6-6.8-2.6l-11.4-1.7l1.4-14.6l1.4-3.8l-1.3-3.5&#10;&#9;&#9;c0.2-1.5,0.7-2.9,1.6-4.2c1.2-1.5-5.2-3.3-6.6-2.5s-1.6,4.2-1.6,4.2l2.4,1.6c0,0-2,4.7-1.3,5.8s-0.6,15.8-0.6,15.8l-13.2-1.1&#10;&#9;&#9;c0,0-6-2.5-6.8,0.2s7.2,2.1,7.2,2.1l12.1,2.4l-0.4,80.5l0,0L214.7,342z"/>
	<path d="M240.4,357.1l10.9-46.1l9.4,2.7c0,0,4.6,4.6,7.5,0.6s-6.4-3.5-6.4-3.5l-11.1-3.3l3.4-14.3l1.9-3.5l-0.8-3.6&#10;&#9;&#9;c0.4-1.4,1.1-2.8,2.1-3.9c1.4-1.3-4.8-4-6.2-3.4s-2.1,3.9-2.1,3.9l2.2,1.9c0,0-2.6,4.3-2.1,5.5s-2.7,15.5-2.7,15.5l-12.9-2.9&#10;&#9;&#9;c0,0-5.6-3.3-6.8-0.7s6.9,3,6.9,3l11.6,4l-11.5,79.6l0,0L240.4,357.1z"/>
	<path d="M225.1,332.8l1.8-38.2l7.8,0.7c0,0,4.4,3,6-0.6s-5.6-1.8-5.6-1.8l-9.3-1l0.6-11.8l1-3.1l-1.1-2.8c0.1-1.2,0.5-2.4,1.1-3.4&#10;&#9;&#9;c0.9-1.2-4.4-2.4-5.4-1.8s-1.1,3.4-1.1,3.4l2,1.2c0,0-1.4,3.8-0.8,4.7s0.1,12.7,0.1,12.7l-10.7-0.4c0,0-4.9-1.8-5.5,0.5&#10;&#9;&#9;s5.9,1.4,5.9,1.4l9.8,1.5l2.7,64.8l0,0L225.1,332.8z"/>
	<path d="M187.6,336.1l15.1-35.1l7.1,3.4c0,0,3,4.3,5.9,1.5s-4.6-3.7-4.6-3.7l-8.4-4.2l4.7-10.9l2-2.5l-0.1-3&#10;&#9;&#9;c0.5-1.1,1.3-2.1,2.2-2.8c1.3-0.8-3.2-3.8-4.5-3.5s-2.2,2.8-2.2,2.8l1.5,1.8c0,0-2.7,3.1-2.4,4.1s-4.3,12-4.3,12l-9.9-4.1&#10;&#9;&#9;c0,0-4-3.4-5.3-1.5s5,3.4,5,3.4l8.7,4.8l-20.2,61.6l0,0L187.6,336.1z"/>
	<path d="M237.5,344.3l1.8-38.2l7.8,0.7c0,0,4.4,3,6-0.6s-5.6-1.8-5.6-1.8l-9.3-1l0.6-11.8l1-3.1l-1.1-2.8c0.1-1.2,0.5-2.4,1.1-3.4&#10;&#9;&#9;c0.9-1.2-4.4-2.5-5.4-1.8s-1.1,3.4-1.1,3.4l2,1.2c0,0-1.4,3.8-0.8,4.7s0.1,12.7,0.1,12.7l-10.7-0.4c0,0-4.9-1.8-5.5,0.5&#10;&#9;&#9;s5.9,1.4,5.9,1.4l9.8,1.5l2.7,64.8l0,0L237.5,344.3z"/>
	<path d="M199.1,358.8l1.6-67.3l8.6,0.9c0,0,4.8,3.3,6.7-0.6s-6.1-2.1-6.1-2.1l-10.3-1.2l0.8-13l1.2-3.4l-1.2-3.1&#10;&#9;&#9;c0.1-1.3,0.6-2.6,1.3-3.8c1-1.4-4.8-2.8-6-2s-1.3,3.8-1.3,3.8l2.2,1.3c0,0-1.6,4.2-1,5.2s0,14.1,0,14.1l-11.8-0.6&#10;&#9;&#9;c0,0-5.4-2-6.1,0.4s6.5,1.6,6.5,1.6l10.8,1.8l-4.3,55.1l0,0L199.1,358.8z"/>
</g>
</svg>